# Blender 3.6.5
# www.blender.org
mtllib model.mtl
o Cube
v -7.500000 7.178615 -0.127914
v -7.178615 7.500000 -0.127914
v -7.491943 7.250131 -0.127914
v -7.468174 7.318059 -0.127914
v -7.429884 7.378996 -0.127914
v -7.378996 7.429884 -0.127914
v -7.318059 7.468174 -0.127914
v -7.250131 7.491943 -0.127914
v -7.178615 7.500000 0.127914
v -7.500000 7.178615 0.127914
v -7.250131 7.491943 0.127914
v -7.318059 7.468174 0.127914
v -7.378996 7.429884 0.127914
v -7.429884 7.378996 0.127914
v -7.468174 7.318059 0.127914
v -7.491943 7.250131 0.127914
v 7.178615 7.500000 -0.127914
v 7.500000 7.178615 -0.127914
v 7.250131 7.491943 -0.127914
v 7.318059 7.468174 -0.127914
v 7.378996 7.429884 -0.127914
v 7.429884 7.378996 -0.127914
v 7.468174 7.318059 -0.127914
v 7.491943 7.250131 -0.127914
v 7.500000 7.178615 0.127914
v 7.178615 7.500000 0.127914
v 7.491943 7.250131 0.127914
v 7.468174 7.318059 0.127914
v 7.429884 7.378996 0.127914
v 7.378996 7.429884 0.127914
v 7.318059 7.468174 0.127914
v 7.250131 7.491943 0.127914
v -7.178615 -7.500000 -0.127914
v -7.500000 -7.178615 -0.127914
v -7.250131 -7.491943 -0.127914
v -7.318059 -7.468174 -0.127914
v -7.378996 -7.429884 -0.127914
v -7.429884 -7.378996 -0.127914
v -7.468174 -7.318059 -0.127914
v -7.491943 -7.250131 -0.127914
v -7.500000 -7.178615 0.127914
v -7.178615 -7.500000 0.127914
v -7.491943 -7.250131 0.127914
v -7.468174 -7.318059 0.127914
v -7.429884 -7.378996 0.127914
v -7.378996 -7.429884 0.127914
v -7.318059 -7.468174 0.127914
v -7.250131 -7.491943 0.127914
v 7.500000 -7.178615 -0.127914
v 7.178615 -7.500000 -0.127914
v 7.491943 -7.250131 -0.127914
v 7.468174 -7.318059 -0.127914
v 7.429884 -7.378996 -0.127914
v 7.378996 -7.429884 -0.127914
v 7.318059 -7.468174 -0.127914
v 7.250131 -7.491943 -0.127914
v 7.178615 -7.500000 0.127914
v 7.500000 -7.178615 0.127914
v 7.250131 -7.491943 0.127914
v 7.318059 -7.468174 0.127914
v 7.378996 -7.429884 0.127914
v 7.429884 -7.378996 0.127914
v 7.468174 -7.318059 0.127914
v 7.491943 -7.250131 0.127914
vn -1.0000 -0.0000 -0.0000
vn -0.0000 -1.0000 -0.0000
vn -0.0000 -0.0000 1.0000
vn -0.0000 1.0000 -0.0000
vn 1.0000 -0.0000 -0.0000
vn -0.9937 0.1120 -0.0000
vn -0.9439 0.3303 -0.0000
vn -0.8467 0.5320 -0.0000
vn -0.7071 0.7071 -0.0000
vn -0.5320 0.8467 -0.0000
vn -0.3303 0.9439 -0.0000
vn -0.1119 0.9937 -0.0000
vn 0.9937 0.1120 -0.0000
vn 0.9439 0.3303 -0.0000
vn 0.8467 0.5320 -0.0000
vn 0.7071 0.7071 -0.0000
vn 0.5320 0.8467 -0.0000
vn 0.3303 0.9439 -0.0000
vn 0.1119 0.9937 -0.0000
vn 0.1119 -0.9937 -0.0000
vn 0.3303 -0.9439 -0.0000
vn 0.5320 -0.8467 -0.0000
vn 0.7071 -0.7071 -0.0000
vn 0.8467 -0.5320 -0.0000
vn 0.9439 -0.3303 -0.0000
vn 0.9937 -0.1120 -0.0000
vn -0.9937 -0.1120 -0.0000
vn -0.9439 -0.3303 -0.0000
vn -0.8467 -0.5320 -0.0000
vn -0.7071 -0.7071 -0.0000
vn -0.5320 -0.8467 -0.0000
vn -0.3303 -0.9439 -0.0000
vn -0.1119 -0.9937 -0.0000
vn -0.0000 -0.0000 -1.0000
vt 0.508528 0.486950
vt 0.500000 0.486950
vt 0.500000 0.008376
vt 0.508528 0.008376
vt 0.525583 0.485254
vt 0.517055 0.485254
vt 0.517055 0.006679
vt 0.525583 0.006679
vt 0.489287 0.000000
vt 0.491671 0.000269
vt 0.493935 0.001061
vt 0.495966 0.002337
vt 0.497663 0.004033
vt 0.498939 0.006065
vt 0.499731 0.008329
vt 0.500000 0.010713
vt 0.500000 0.489287
vt 0.499731 0.491671
vt 0.498939 0.493935
vt 0.497663 0.495967
vt 0.495967 0.497663
vt 0.493935 0.498939
vt 0.491671 0.499731
vt 0.489287 0.500000
vt 0.010713 0.500000
vt 0.008329 0.499731
vt 0.006065 0.498939
vt 0.004033 0.497663
vt 0.002337 0.495967
vt 0.001061 0.493935
vt 0.000269 0.491671
vt 0.000000 0.489287
vt 0.000000 0.010713
vt 0.000269 0.008329
vt 0.001061 0.006065
vt 0.002337 0.004034
vt 0.004033 0.002337
vt 0.006065 0.001061
vt 0.008329 0.000269
vt 0.010713 0.000000
vt 0.534111 0.485254
vt 0.525583 0.006679
vt 0.534110 0.006679
vt 0.517055 0.486950
vt 0.517055 0.008376
vt 0.500000 0.005992
vt 0.508528 0.005992
vt 0.500000 0.003727
vt 0.508528 0.003727
vt 0.500000 0.001696
vt 0.508528 0.001696
vt 0.500000 -0.000000
vt 0.508528 -0.000000
vt 0.534111 0.491933
vt 0.525583 0.491933
vt 0.525583 0.489902
vt 0.534111 0.489902
vt 0.525583 0.487638
vt 0.534111 0.487638
vt 0.517055 0.489334
vt 0.508528 0.489334
vt 0.517055 0.491598
vt 0.508528 0.491598
vt 0.517055 0.493629
vt 0.508528 0.493629
vt 0.517055 0.495326
vt 0.508528 0.495326
vt 0.525583 -0.000000
vt 0.534110 -0.000000
vt 0.534110 0.002031
vt 0.525583 0.002031
vt 0.534110 0.004296
vt 0.525583 0.004296
vt 0.517055 0.487638
vt 0.517055 0.489902
vt 0.517055 0.491933
vt 0.508528 -0.000000
vt 0.517055 -0.000000
vt 0.517055 0.001696
vt 0.517055 0.003727
vt 0.517055 0.005992
vt 0.500000 0.489334
vt 0.500000 0.491598
vt 0.500000 0.493629
vt 0.500000 0.495326
vt 0.517055 -0.000000
vt 0.525583 -0.000000
vt 0.525583 0.002031
vt 0.517055 0.002031
vt 0.525583 0.004296
vt 0.517055 0.004296
vt 0.489287 0.500000
vt 0.491671 0.500269
vt 0.493935 0.501061
vt 0.495966 0.502337
vt 0.497663 0.504034
vt 0.498939 0.506065
vt 0.499731 0.508329
vt 0.500000 0.510713
vt 0.500000 0.989287
vt 0.499731 0.991671
vt 0.498939 0.993935
vt 0.497663 0.995966
vt 0.495967 0.997663
vt 0.493935 0.998939
vt 0.491671 0.999731
vt 0.489287 1.000000
vt 0.010713 1.000000
vt 0.008329 0.999731
vt 0.006065 0.998939
vt 0.004033 0.997663
vt 0.002337 0.995967
vt 0.001061 0.993935
vt 0.000269 0.991671
vt 0.000000 0.989287
vt 0.000000 0.510713
vt 0.000269 0.508329
vt 0.001061 0.506065
vt 0.002337 0.504034
vt 0.004033 0.502337
vt 0.006065 0.501061
vt 0.008329 0.500269
vt 0.010713 0.500000
s 0
usemtl Material.001
f 34/1/1 41/2/1 10/3/1 1/4/1
f 50/5/2 57/6/2 42/7/2 33/8/2
f 57/9/3 59/10/3 60/11/3 61/12/3 62/13/3 63/14/3 64/15/3 58/16/3 25/17/3 27/18/3 28/19/3 29/20/3 30/21/3 31/22/3 32/23/3 26/24/3 9/25/3 11/26/3 12/27/3 13/28/3 14/29/3 15/30/3 16/31/3 10/32/3 41/33/3 43/34/3 44/35/3 45/36/3 46/37/3 47/38/3 48/39/3 42/40/3
f 2/41/4 9/5/4 26/42/4 17/43/4
f 18/44/5 25/1/5 58/4/5 49/45/5
f 1/4/6 10/3/6 16/46/6 3/47/6
f 3/47/7 16/46/7 15/48/7 4/49/7
f 4/49/8 15/48/8 14/50/8 5/51/8
f 5/51/9 14/50/9 13/52/9 6/53/9
f 6/54/10 13/55/10 12/56/10 7/57/10
f 7/57/11 12/56/11 11/58/11 8/59/11
f 8/59/12 11/58/12 9/5/12 2/41/12
f 25/1/13 18/44/13 24/60/13 27/61/13
f 27/61/14 24/60/14 23/62/14 28/63/14
f 28/63/15 23/62/15 22/64/15 29/65/15
f 29/65/16 22/64/16 21/66/16 30/67/16
f 30/68/17 21/69/17 20/70/17 31/71/17
f 31/71/18 20/70/18 19/72/18 32/73/18
f 32/73/19 19/72/19 17/43/19 26/42/19
f 57/6/20 50/5/20 56/58/20 59/74/20
f 59/74/21 56/58/21 55/56/21 60/75/21
f 60/75/22 55/56/22 54/55/22 61/76/22
f 61/77/23 54/78/23 53/79/23 62/51/23
f 62/51/24 53/79/24 52/80/24 63/49/24
f 63/49/25 52/80/25 51/81/25 64/47/25
f 64/47/26 51/81/26 49/45/26 58/4/26
f 41/2/27 34/1/27 40/61/27 43/82/27
f 43/82/28 40/61/28 39/63/28 44/83/28
f 44/83/29 39/63/29 38/65/29 45/84/29
f 45/84/30 38/65/30 37/67/30 46/85/30
f 46/86/31 37/87/31 36/88/31 47/89/31
f 47/89/32 36/88/32 35/90/32 48/91/32
f 48/91/33 35/90/33 33/8/33 42/7/33
f 17/92/34 19/93/34 20/94/34 21/95/34 22/96/34 23/97/34 24/98/34 18/99/34 49/100/34 51/101/34 52/102/34 53/103/34 54/104/34 55/105/34 56/106/34 50/107/34 33/108/34 35/109/34 36/110/34 37/111/34 38/112/34 39/113/34 40/114/34 34/115/34 1/116/34 3/117/34 4/118/34 5/119/34 6/120/34 7/121/34 8/122/34 2/123/34
